<svg xmlns="http://www.w3.org/2000/svg" viewBox="0 0 720 300" role="img" aria-labelledby="title desc">
  <title id="title">Firma visiva RadarSanità</title>
  <desc id="desc">Radar sanitario stilizzato con impulso cardiaco, bussola e punti di ricerca.</desc>
  <defs>
    <linearGradient id="bg" x1="0" x2="1" y1="0" y2="1">
      <stop offset="0" stop-color="#f7fffc"/>
      <stop offset=".58" stop-color="#e7f7f3"/>
      <stop offset="1" stop-color="#fff7e8"/>
    </linearGradient>
    <linearGradient id="sweep" x1="0" x2="1">
      <stop offset="0" stop-color="#0f766e" stop-opacity=".05"/>
      <stop offset="1" stop-color="#0f766e" stop-opacity=".36"/>
    </linearGradient>
    <filter id="soft" x="-20%" y="-20%" width="140%" height="140%">
      <feDropShadow dx="0" dy="18" stdDeviation="16" flood-color="#123332" flood-opacity=".14"/>
    </filter>
  </defs>
  <rect width="720" height="300" rx="34" fill="url(#bg)"/>
  <path d="M35 238c88-28 155-40 244-28 111 14 194-12 407-96" fill="none" stroke="#d9ece7" stroke-width="2"/>
  <path d="M52 194c84-31 167-43 253-31 113 15 205-7 361-68" fill="none" stroke="#e8f3ef" stroke-width="2"/>
  <g transform="translate(82 38)" filter="url(#soft)">
    <circle cx="112" cy="112" r="92" fill="#ffffff" stroke="#bfe1da" stroke-width="3"/>
    <circle cx="112" cy="112" r="64" fill="none" stroke="#d8eee9" stroke-width="3"/>
    <circle cx="112" cy="112" r="34" fill="none" stroke="#e8f5f1" stroke-width="3"/>
    <path d="M112 112 202 78A96 96 0 0 1 204 143Z" fill="url(#sweep)"/>
    <path d="M38 118h43l14-32 25 65 20-43h42" fill="none" stroke="#0f766e" stroke-width="10" stroke-linecap="round" stroke-linejoin="round"/>
    <circle cx="198" cy="76" r="9" fill="#a86b25"/>
    <circle cx="166" cy="163" r="7" fill="#2563a9"/>
    <circle cx="68" cy="62" r="6" fill="#0f766e"/>
  </g>
  <g transform="translate(328 58)">
    <rect x="0" y="0" width="300" height="176" rx="24" fill="#ffffff" stroke="#cbe4de" stroke-width="2"/>
    <path d="M32 48h84M32 82h138M32 116h104" stroke="#dcefeb" stroke-width="9" stroke-linecap="round"/>
    <path d="M205 36v96M157 84h96" stroke="#0f766e" stroke-width="14" stroke-linecap="round"/>
    <circle cx="205" cy="84" r="54" fill="none" stroke="#bfe1da" stroke-width="8"/>
    <path d="M40 148c42-20 74-20 118-7 38 12 68 12 108-14" fill="none" stroke="#a86b25" stroke-width="6" stroke-linecap="round"/>
  </g>
  <g transform="translate(558 216)">
    <circle cx="0" cy="0" r="9" fill="#0f766e"/>
    <circle cx="42" cy="-18" r="7" fill="#2563a9"/>
    <circle cx="78" cy="10" r="8" fill="#a86b25"/>
    <path d="M0 0 42-18 78 10" fill="none" stroke="#bfd9d3" stroke-width="3"/>
  </g>
</svg>
