<svg xmlns="http://www.w3.org/2000/svg" viewBox="0 0 180 120" role="img" aria-labelledby="title desc">
  <title id="title">Fiducia e recensioni</title>
  <desc id="desc">Stelle, verifica e fonti controllate.</desc>
  <rect width="180" height="120" rx="22" fill="#f4fbf8"/>
  <rect x="28" y="30" width="124" height="62" rx="18" fill="#ffffff" stroke="#cde7e1" stroke-width="2"/>
  <path d="M56 57l7 14 15 2-11 11 3 15-14-8-14 8 3-15-11-11 15-2z" fill="#0f766e"/>
  <path d="M92 45l4 8 9 1-7 6 2 9-8-5-8 5 2-9-7-6 9-1zM122 45l4 8 9 1-7 6 2 9-8-5-8 5 2-9-7-6 9-1z" fill="#9fd8ce"/>
  <circle cx="128" cy="83" r="14" fill="#e8f8f4" stroke="#0f766e" stroke-width="2"/>
  <path d="M121 83l5 5 10-13" fill="none" stroke="#0f766e" stroke-width="4" stroke-linecap="round" stroke-linejoin="round"/>
</svg>
